# xmcd
#
# Track frame offsets:
#	150
#	29985
#	45202
#	70400
#	88732
#	112960
#	126135
#	149125
#	165930
#	194100
#	241342
#	279965
#	294502
#	308760
#	323080
#	334437
#
# Disc length: 4626 seconds
#
# Revision: 2
# Processed by: cddbd v1.5.2PL0 Copyright (c) Steve Scherf et al.
# Submitted via: EZCDAudioConverter 2.1.7.1
#
DISCID=f4121010
DTITLE=V/A - Legend Of A Mind 1/3
DYEAR=2003
DGENRE=
TTITLE0=Moody Blues - Legend Of A Mind [1974 Remix]
TTITLE1=Bill Fay - Screams In The Ears
TTITLE2=Giles, Giles and Fripp - Suite No. One
TTITLE3=The End - Introspection (Part 1)
TTITLE4=Ten Years After - I Can't Keep From Crying Sometimes
TTITLE5=Bulldog Breed - Austin Osmanspare
TTITLE6=Egg - The Song Of McGuillicudie The Pusillanimous
TTITLE7=Johnny Almond Music Machine - Voodoo Forest
TTITLE8=East Of Eden - Nymphenburger
TTITLE9=Aardvark - Once Upon A Hill/Put That In Your Pipe and Smoke It
TTITLE10=T2 - No More White Horses
TTITLE11=Caravan - Hello Hello [Single]
TTITLE12=Leafhound - Freelance Fiend
TTITLE13=Granny's Intentions - Nutmeg, Bitter Suite
TTITLE14=The Rattles - The Witch
TTITLE15=The Alan Brown! featuring Jess Roden - Still As Stone
EXTD=
EXTT0=
EXTT1=
EXTT2=
EXTT3=
EXTT4=
EXTT5=
EXTT6=
EXTT7=
EXTT8=
EXTT9=
EXTT10=
EXTT11=
EXTT12=
EXTT13=
EXTT14=
EXTT15=
PLAYORDER=
